<?xml version="1.0" standalone="no"?>
<!DOCTYPE svg PUBLIC "-//W3C//DTD SVG 20010904//EN"
 "http://www.w3.org/TR/2001/REC-SVG-20010904/DTD/svg10.dtd">
<svg version="1.0" xmlns="http://www.w3.org/2000/svg"
 width="1098.000000pt" height="280.000000pt" viewBox="0 0 1098.000000 280.000000"
 preserveAspectRatio="xMidYMid meet">
<metadata>
Created by potrace 1.10, written by Peter Selinger 2001-2011
</metadata>
<g transform="translate(0.000000,280.000000) scale(0.100000,-0.100000)"
fill="#000000" stroke="none">
<path d="M2392 2558 c-17 -17 -17 -449 0 -466 7 -7 28 -12 48 -12 51 0 60 14
60 92 l0 68 123 0 122 0 0 -69 0 -69 -56 -11 c-125 -25 -237 -109 -291 -219
l-33 -67 0 -390 0 -390 27 -57 c50 -108 153 -192 272 -224 39 -11 141 -14 433
-14 346 0 387 2 442 19 118 37 211 115 260 220 l26 56 3 345 c4 402 -1 450
-57 538 -43 66 -94 112 -165 147 l-50 25 95 1 c78 1 309 0 424 -1 27 -1 25 -3
-29 -33 -76 -41 -138 -103 -173 -175 l-28 -57 -3 -529 c-2 -387 1 -532 9 -542
14 -17 244 -20 269 -4 13 8 15 76 17 497 2 543 -2 510 73 561 32 22 38 22 328
22 l295 0 42 -25 c77 -44 75 -32 75 -567 0 -355 3 -477 12 -486 17 -17 259
-17 276 0 9 9 12 138 12 518 0 559 -1 564 -63 656 -42 63 -121 126 -194 155
-57 23 -67 24 -419 27 l-361 3 4 23 c9 47 -11 65 -80 68 l-62 3 -3 73 -3 72
60 0 c67 0 91 15 91 58 0 45 -12 54 -81 55 -55 2 -64 5 -67 22 -5 28 -15 36
-48 41 -35 5 -64 -13 -66 -42 -2 -19 -9 -21 -90 -22 -48 0 -96 -5 -106 -11
-11 -6 -24 -6 -33 0 -7 5 -68 9 -134 9 -86 0 -115 3 -102 11 25 15 24 85 -2
99 -29 15 -67 12 -85 -6 -20 -20 -21 -68 -1 -87 11 -12 12 -16 2 -20 -9 -3
-13 -50 -15 -175 l-3 -172 -45 0 -45 0 23 31 c20 27 23 42 23 133 0 181 -10
188 -293 189 l-206 1 -20 40 c-34 67 -63 76 -256 76 -116 0 -170 -4 -178 -12z
m394 -51 c13 -15 24 -41 24 -56 l0 -27 98 -1 c53 -1 108 -1 122 0 197 5 229 2
255 -23 20 -21 25 -38 30 -102 7 -89 -6 -151 -38 -173 -16 -11 -49 -15 -134
-15 -103 0 -114 2 -139 24 -27 22 -28 26 -28 130 l0 106 -63 0 c-80 0 -83 -6
-83 -149 l0 -111 -27 0 -28 0 0 83 c0 72 -2 82 -17 81 -10 0 -79 -1 -153 -2
l-135 -2 0 -80 0 -80 -30 0 -30 0 0 216 0 215 176 -3 176 -3 24 -28z m694 3
c0 -27 -3 -30 -30 -30 -27 0 -30 3 -30 30 0 27 3 30 30 30 27 0 30 -3 30 -30z
m558 -53 c3 -25 6 -26 75 -29 70 -3 72 -4 75 -30 l3 -28 -75 0 -76 0 0 -83 c0
-112 11 -127 91 -127 56 0 59 -1 59 -24 l0 -25 -202 0 c-164 -1 -206 2 -225
14 -21 14 -23 14 -23 0 0 -13 -20 -15 -130 -15 l-130 0 0 -30 c0 -20 -9 -40
-25 -56 -23 -23 -31 -25 -102 -22 -70 3 -78 5 -78 23 0 18 8 20 62 23 34 2 66
9 72 16 6 7 12 83 13 186 3 170 3 173 25 176 12 2 25 -1 28 -6 4 -6 15 -6 31
0 35 14 200 6 219 -10 13 -11 21 -10 42 1 17 9 58 14 119 14 55 0 95 4 96 10
0 6 2 16 2 23 1 15 27 33 41 29 6 -2 11 -15 13 -30z m-1091 -208 c0 -77 4 -95
22 -120 l22 -29 -66 0 -65 0 0 113 c0 63 3 117 7 120 3 4 23 7 43 7 l37 0 0
-91z m300 -206 c-2 -16 -1 -38 4 -50 8 -21 15 -23 89 -23 92 0 131 15 158 59
17 28 19 29 54 16 96 -32 177 -107 221 -202 21 -46 22 -60 25 -400 3 -296 1
-363 -13 -415 -29 -114 -124 -211 -244 -248 -58 -18 -92 -20 -447 -20 -362 0
-388 1 -446 21 -106 36 -189 107 -232 198 -20 44 -21 61 -21 436 l0 390 34 63
c51 94 133 158 241 188 30 8 132 13 313 13 l268 1 -4 -27z m1765 -16 c85 -41
146 -101 182 -177 20 -44 21 -59 24 -567 l3 -523 -121 0 -120 0 0 473 c0 437
-2 475 -19 512 -22 48 -44 69 -95 90 -33 14 -84 16 -327 16 -221 0 -296 -4
-321 -14 -40 -17 -95 -77 -105 -115 -5 -15 -8 -237 -8 -494 l0 -468 -117 0
-118 0 0 513 c0 584 -2 570 83 663 57 63 99 90 175 115 52 17 91 18 433 16
l375 -2 76 -38z"/>
<path d="M2470 2405 l0 -75 128 0 c86 0 132 4 140 12 7 7 12 35 12 63 0 28 -5
56 -12 63 -8 8 -54 12 -140 12 l-128 0 0 -75z m250 0 l0 -45 -110 0 -110 0 0
45 0 45 110 0 110 0 0 -45z"/>
<path d="M3051 2361 c-10 -7 -14 -32 -13 -92 0 -103 7 -109 109 -109 101 0
116 15 110 110 -6 94 -12 100 -111 100 -44 0 -87 -4 -95 -9z m170 -38 c1 -10
1 -43 1 -73 l0 -55 -76 -3 -76 -3 -1 48 c0 26 -2 57 -4 67 -6 32 3 36 81 36
63 0 74 -2 75 -17z"/>
<path d="M3510 2351 c-5 -11 -10 -29 -10 -40 0 -20 6 -21 104 -21 l105 0 -4
32 c-3 17 -10 35 -17 40 -7 4 -48 8 -90 8 -66 0 -79 -3 -88 -19z m160 -21 c0
-6 -30 -10 -70 -10 -40 0 -70 4 -70 10 0 6 30 10 70 10 40 0 70 -4 70 -10z"/>
<path d="M3800 2360 c-11 -7 -15 -29 -15 -90 0 -103 7 -110 119 -110 l81 0 0
102 -1 103 -84 3 c-47 1 -92 -2 -100 -8z m155 -92 l0 -73 -69 0 -69 0 -1 60
c-1 33 0 66 2 73 3 8 26 12 71 12 l66 0 0 -72z"/>
<path d="M3500 2216 c0 -54 4 -56 120 -56 l108 0 -2 38 -2 37 -112 3 -112 3 0
-25z m200 -16 c0 -6 -35 -10 -85 -10 -50 0 -85 4 -85 10 0 6 35 10 85 10 50 0
85 -4 85 -10z"/>
<path d="M2850 1849 c-120 -7 -169 -33 -201 -103 -17 -37 -19 -70 -19 -334 0
-251 2 -298 16 -325 23 -46 43 -66 89 -91 39 -20 52 -21 360 -21 312 0 321 1
362 22 49 27 79 62 94 112 7 23 9 140 7 327 l-3 291 -25 36 c-14 20 -46 48
-71 62 -45 24 -51 25 -285 27 -131 2 -277 1 -324 -3z m607 -55 c15 -11 38 -36
51 -54 22 -32 22 -39 22 -322 0 -328 -2 -339 -73 -386 l-41 -27 -320 0 c-306
0 -323 1 -356 21 -19 11 -45 35 -58 54 -23 34 -23 35 -20 341 l3 308 30 31
c17 18 39 37 50 43 31 17 166 22 437 17 230 -5 248 -6 275 -26z"/>
<path d="M874 2540 c-145 -51 -255 -179 -284 -330 -13 -71 -13 -1060 0 -1131
30 -158 157 -293 314 -335 41 -11 187 -14 733 -14 664 0 683 1 693 19 13 25
13 217 0 242 -10 18 -28 19 -649 19 -450 0 -648 3 -672 11 -43 15 -88 55 -105
96 -11 26 -14 129 -14 527 0 325 4 504 11 523 13 34 55 80 91 99 22 12 136 14
672 14 573 0 646 2 660 16 13 12 16 38 16 120 0 58 -5 114 -10 125 -10 19 -28
19 -708 18 -646 0 -701 -2 -748 -19z m1436 -120 l0 -110 -647 0 c-632 0 -648
0 -689 -21 -47 -22 -84 -66 -102 -118 -9 -24 -12 -178 -12 -530 0 -458 2 -499
19 -536 23 -51 79 -101 128 -114 25 -7 260 -11 671 -11 l632 0 0 -110 0 -110
-680 0 c-662 0 -682 1 -742 21 -113 38 -191 109 -245 225 l-28 59 0 580 0 580
31 66 c51 107 119 173 223 215 l56 24 693 0 692 0 0 -110z"/>
<path d="M5246 2084 c-9 -8 -16 -18 -16 -20 0 -12 513 -1310 522 -1322 15 -17
272 -17 285 1 6 6 91 216 189 464 99 249 181 453 184 453 3 0 86 -204 184
-453 98 -248 183 -458 189 -464 7 -9 48 -13 143 -13 128 0 134 1 148 23 18 27
516 1293 516 1310 0 31 -25 37 -156 37 -121 0 -134 -2 -147 -20 -7 -11 -91
-218 -187 -460 -95 -242 -176 -440 -179 -440 -3 0 -51 116 -106 258 -187 482
-253 645 -267 653 -23 15 -265 11 -280 -4 -7 -8 -92 -215 -188 -460 -96 -246
-177 -447 -180 -447 -3 0 -86 205 -184 455 -98 249 -185 456 -193 459 -8 4
-70 6 -138 6 -99 0 -127 -3 -139 -16z m334 -184 c36 -91 121 -308 190 -482 69
-175 127 -318 131 -318 3 0 90 218 195 485 l189 485 126 0 126 0 189 -485
c104 -267 192 -485 195 -485 3 0 91 217 196 483 l190 482 127 3 c69 1 126 -1
126 -6 0 -5 -114 -298 -254 -653 l-253 -644 -125 -3 -125 -3 -194 491 c-107
269 -196 490 -199 490 -3 -1 -92 -221 -199 -490 l-194 -490 -123 0 -122 0 -60
153 c-205 519 -452 1150 -452 1153 0 3 57 3 127 2 l127 -3 66 -165z"/>
<path d="M7879 2085 c-156 -43 -270 -158 -299 -301 -5 -28 -8 -199 -7 -399 3
-304 5 -356 20 -395 39 -101 127 -187 237 -232 54 -23 61 -23 581 -26 474 -3
528 -1 543 13 14 15 16 83 16 675 0 642 -1 660 -19 670 -30 16 -1013 12 -1072
-5z m1061 -670 l0 -656 -527 3 -528 3 -65 31 c-92 44 -143 93 -182 172 l-33
67 0 380 c0 369 1 381 22 427 46 100 131 173 239 208 54 17 98 19 567 19 l507
1 0 -655z"/>
<path d="M7962 1838 c-50 -17 -109 -87 -117 -139 -3 -24 -5 -168 -3 -319 3
-316 5 -320 93 -375 l48 -30 359 -3 358 -3 0 440 0 441 -352 -1 c-215 -1 -366
-5 -386 -11z m708 -429 l0 -410 -337 3 c-375 3 -388 6 -436 72 -21 30 -22 40
-25 311 -2 154 -1 294 3 312 7 40 49 91 90 109 23 10 110 13 368 14 l337 0 0
-411z"/>
<path d="M9006 2084 c-14 -14 -16 -74 -16 -518 0 -542 2 -562 54 -645 46 -72
138 -142 231 -174 18 -7 182 -13 420 -17 338 -4 390 -7 390 -20 -2 -58 -17
-98 -50 -130 l-36 -35 -432 -3 c-390 -2 -433 -4 -444 -19 -15 -20 -18 -220 -3
-243 8 -13 69 -15 427 -18 283 -2 439 1 486 8 139 24 261 111 319 228 l23 47
3 765 c2 713 1 766 -15 777 -20 15 -240 18 -263 3 -13 -8 -15 -82 -18 -550
l-3 -541 -344 3 c-331 3 -345 4 -372 24 -15 11 -38 36 -50 54 l-23 33 0 478
c0 421 -2 479 -16 493 -23 23 -245 23 -268 0z m254 -491 c0 -465 1 -478 21
-521 13 -26 38 -54 62 -70 l41 -27 365 0 c318 0 366 2 367 15 1 8 2 255 3 548
l1 532 115 0 115 0 -2 -762 -3 -763 -30 -54 c-32 -58 -98 -122 -159 -153 -85
-43 -146 -48 -593 -47 l-423 1 0 109 0 109 414 0 c269 0 425 4 443 11 34 12
80 55 98 89 11 22 19 91 16 137 -1 9 -98 13 -403 15 -395 3 -404 3 -460 26
-76 31 -160 108 -195 180 l-28 57 -3 523 -3 522 121 0 120 0 0 -477z"/>
</g>
</svg>
