<?xml version="1.0" standalone="no"?>
<!DOCTYPE svg PUBLIC "-//W3C//DTD SVG 20010904//EN"
  "http://www.w3.org/TR/2001/REC-SVG-20010904/DTD/svg10.dtd">
<svg width="50" height="13">
  <circle cx="0" cy="0" r="1" fill="white"/>
  <circle cx="1" cy="0" r="1" fill="white"/>
  <circle cx="2" cy="0" r="1" fill="white"/>
  <circle cx="3" cy="0" r="1" fill="srgba(98.677%,98.677%,98.677%,1)"/>
  <circle cx="4" cy="0" r="1" fill="srgba(96.0403%,96.0403%,96.0403%,1)"/>
  <circle cx="5" cy="0" r="1" fill="srgba(95.3262%,95.3262%,95.3262%,1)"/>
  <circle cx="6" cy="0" r="1" fill="srgba(95.1705%,95.1705%,95.1705%,1)"/>
  <circle cx="7" cy="0" r="1" fill="srgba(95.1125%,95.1125%,95.1125%,1)"/>
  <circle cx="8" cy="0" r="1" fill="srgba(95.0698%,95.0698%,95.0698%,1)"/>
  <circle cx="9" cy="0" r="1" fill="srgba(95.2438%,95.2438%,95.2438%,1)"/>
  <circle cx="10" cy="0" r="1" fill="srgba(96.1273%,96.1273%,96.1273%,1)"/>
  <circle cx="11" cy="0" r="1" fill="srgba(94.4411%,94.4411%,94.4411%,1)"/>
  <circle cx="12" cy="0" r="1" fill="srgba(96.0906%,96.0906%,96.0906%,1)"/>
  <circle cx="13" cy="0" r="1" fill="srgba(99.8428%,99.8428%,99.8428%,1)"/>
  <circle cx="14" cy="0" r="1" fill="white"/>
  <circle cx="15" cy="0" r="1" fill="srgba(97.2793%,97.2793%,97.2793%,1)"/>
  <circle cx="16" cy="0" r="1" fill="srgba(99.1424%,99.1424%,99.1424%,1)"/>
  <circle cx="17" cy="0" r="1" fill="srgba(99.8672%,99.8672%,99.8672%,1)"/>
  <circle cx="18" cy="0" r="1" fill="srgba(99.4064%,99.4064%,99.4064%,1)"/>
  <circle cx="19" cy="0" r="1" fill="white"/>
  <circle cx="20" cy="0" r="1" fill="white"/>
  <circle cx="21" cy="0" r="1" fill="white"/>
  <circle cx="22" cy="0" r="1" fill="white"/>
  <circle cx="23" cy="0" r="1" fill="white"/>
  <circle cx="24" cy="0" r="1" fill="white"/>
  <circle cx="25" cy="0" r="1" fill="white"/>
  <circle cx="26" cy="0" r="1" fill="white"/>
  <circle cx="27" cy="0" r="1" fill="white"/>
  <circle cx="28" cy="0" r="1" fill="white"/>
  <circle cx="29" cy="0" r="1" fill="white"/>
  <circle cx="30" cy="0" r="1" fill="white"/>
  <circle cx="31" cy="0" r="1" fill="white"/>
  <circle cx="32" cy="0" r="1" fill="white"/>
  <circle cx="33" cy="0" r="1" fill="white"/>
  <circle cx="34" cy="0" r="1" fill="white"/>
  <circle cx="35" cy="0" r="1" fill="white"/>
  <circle cx="36" cy="0" r="1" fill="white"/>
  <circle cx="37" cy="0" r="1" fill="white"/>
  <circle cx="38" cy="0" r="1" fill="white"/>
  <circle cx="39" cy="0" r="1" fill="white"/>
  <circle cx="40" cy="0" r="1" fill="white"/>
  <circle cx="41" cy="0" r="1" fill="white"/>
  <circle cx="42" cy="0" r="1" fill="white"/>
  <circle cx="43" cy="0" r="1" fill="white"/>
  <circle cx="44" cy="0" r="1" fill="white"/>
  <circle cx="45" cy="0" r="1" fill="white"/>
  <circle cx="46" cy="0" r="1" fill="white"/>
  <circle cx="47" cy="0" r="1" fill="white"/>
  <circle cx="48" cy="0" r="1" fill="white"/>
  <circle cx="49" cy="0" r="1" fill="white"/>
  <circle cx="0" cy="1" r="1" fill="white"/>
  <circle cx="1" cy="1" r="1" fill="white"/>
  <circle cx="2" cy="1" r="1" fill="srgba(97.4914%,97.4914%,97.4914%,1)"/>
  <circle cx="3" cy="1" r="1" fill="srgba(87.9179%,87.9179%,87.9179%,1)"/>
  <circle cx="4" cy="1" r="1" fill="srgba(89.7078%,89.7078%,89.7078%,1)"/>
  <circle cx="5" cy="1" r="1" fill="srgba(88.3772%,88.3772%,88.3772%,1)"/>
  <circle cx="6" cy="1" r="1" fill="srgba(88.0461%,88.0461%,88.0461%,1)"/>
  <circle cx="7" cy="1" r="1" fill="srgba(87.9316%,87.9316%,87.9316%,1)"/>
  <circle cx="8" cy="1" r="1" fill="srgba(87.8325%,87.8325%,87.8325%,1)"/>
  <circle cx="9" cy="1" r="1" fill="srgba(88.3207%,88.3207%,88.3207%,1)"/>
  <circle cx="10" cy="1" r="1" fill="srgba(77.2854%,77.2854%,77.2854%,1)"/>
  <circle cx="11" cy="1" r="1" fill="srgba(69.984%,69.984%,69.984%,1)"/>
  <circle cx="12" cy="1" r="1" fill="srgba(74.9645%,74.9645%,74.9645%,1)"/>
  <circle cx="13" cy="1" r="1" fill="srgba(82.1775%,82.1775%,82.1775%,1)"/>
  <circle cx="14" cy="1" r="1" fill="srgba(84.6738%,84.6738%,84.6738%,1)"/>
  <circle cx="15" cy="1" r="1" fill="srgba(73.7362%,73.7362%,73.7362%,1)"/>
  <circle cx="16" cy="1" r="1" fill="srgba(79.9954%,79.9954%,79.9954%,1)"/>
  <circle cx="17" cy="1" r="1" fill="srgba(83.1449%,83.1449%,83.1449%,1)"/>
  <circle cx="18" cy="1" r="1" fill="srgba(79.3301%,79.3301%,79.3301%,1)"/>
  <circle cx="19" cy="1" r="1" fill="srgba(95.1247%,95.1247%,95.1247%,1)"/>
  <circle cx="20" cy="1" r="1" fill="white"/>
  <circle cx="21" cy="1" r="1" fill="white"/>
  <circle cx="22" cy="1" r="1" fill="white"/>
  <circle cx="23" cy="1" r="1" fill="white"/>
  <circle cx="24" cy="1" r="1" fill="white"/>
  <circle cx="25" cy="1" r="1" fill="white"/>
  <circle cx="26" cy="1" r="1" fill="white"/>
  <circle cx="27" cy="1" r="1" fill="white"/>
  <circle cx="28" cy="1" r="1" fill="white"/>
  <circle cx="29" cy="1" r="1" fill="white"/>
  <circle cx="30" cy="1" r="1" fill="white"/>
  <circle cx="31" cy="1" r="1" fill="white"/>
  <circle cx="32" cy="1" r="1" fill="white"/>
  <circle cx="33" cy="1" r="1" fill="white"/>
  <circle cx="34" cy="1" r="1" fill="white"/>
  <circle cx="35" cy="1" r="1" fill="white"/>
  <circle cx="36" cy="1" r="1" fill="white"/>
  <circle cx="37" cy="1" r="1" fill="white"/>
  <circle cx="38" cy="1" r="1" fill="white"/>
  <circle cx="39" cy="1" r="1" fill="white"/>
  <circle cx="40" cy="1" r="1" fill="white"/>
  <circle cx="41" cy="1" r="1" fill="white"/>
  <circle cx="42" cy="1" r="1" fill="white"/>
  <circle cx="43" cy="1" r="1" fill="white"/>
  <circle cx="44" cy="1" r="1" fill="white"/>
  <circle cx="45" cy="1" r="1" fill="white"/>
  <circle cx="46" cy="1" r="1" fill="white"/>
  <circle cx="47" cy="1" r="1" fill="white"/>
  <circle cx="48" cy="1" r="1" fill="white"/>
  <circle cx="49" cy="1" r="1" fill="white"/>
  <circle cx="0" cy="2" r="1" fill="white"/>
  <circle cx="1" cy="2" r="1" fill="white"/>
  <circle cx="2" cy="2" r="1" fill="srgba(91.1925%,91.1925%,91.1925%,1)"/>
  <circle cx="3" cy="2" r="1" fill="srgba(90.8949%,90.8949%,90.8949%,1)"/>
  <circle cx="4" cy="2" r="1" fill="srgba(87.1397%,87.1397%,87.1397%,1)"/>
  <circle cx="5" cy="2" r="1" fill="srgba(88.4932%,88.4932%,88.4932%,1)"/>
  <circle cx="6" cy="2" r="1" fill="srgba(88.7022%,88.7022%,88.7022%,1)"/>
  <circle cx="7" cy="2" r="1" fill="srgba(88.6473%,88.6473%,88.6473%,1)"/>
  <circle cx="8" cy="2" r="1" fill="srgba(88.5374%,88.5374%,88.5374%,1)"/>
  <circle cx="9" cy="2" r="1" fill="srgba(89.482%,89.482%,89.482%,1)"/>
  <circle cx="10" cy="2" r="1" fill="srgba(80.3708%,80.3708%,80.3708%,1)"/>
  <circle cx="11" cy="2" r="1" fill="srgba(70.9178%,70.9178%,70.9178%,1)"/>
  <circle cx="12" cy="2" r="1" fill="srgba(70.2571%,70.2571%,70.2571%,1)"/>
  <circle cx="13" cy="2" r="1" fill="srgba(67.7882%,67.7882%,67.7882%,1)"/>
  <circle cx="14" cy="2" r="1" fill="srgba(66.8482%,66.8482%,66.8482%,1)"/>
  <circle cx="15" cy="2" r="1" fill="srgba(64.831%,64.831%,64.831%,1)"/>
  <circle cx="16" cy="2" r="1" fill="srgba(60.0046%,60.0046%,60.0046%,1)"/>
  <circle cx="17" cy="2" r="1" fill="srgba(68.5405%,68.5405%,68.5405%,1)"/>
  <circle cx="18" cy="2" r="1" fill="srgba(69.3309%,69.3309%,69.3309%,1)"/>
  <circle cx="19" cy="2" r="1" fill="srgba(90.9499%,90.9499%,90.9499%,1)"/>
  <circle cx="20" cy="2" r="1" fill="srgba(97.7462%,97.7462%,97.7462%,1)"/>
  <circle cx="21" cy="2" r="1" fill="srgba(97.5799%,97.5799%,97.5799%,1)"/>
  <circle cx="22" cy="2" r="1" fill="srgba(98.5519%,98.5519%,98.5519%,1)"/>
  <circle cx="23" cy="2" r="1" fill="srgba(99.4537%,99.4537%,99.4537%,1)"/>
  <circle cx="24" cy="2" r="1" fill="srgba(97.734%,97.734%,97.734%,1)"/>
  <circle cx="25" cy="2" r="1" fill="srgba(99.3103%,99.3103%,99.3103%,1)"/>
  <circle cx="26" cy="2" r="1" fill="white"/>
  <circle cx="27" cy="2" r="1" fill="white"/>
  <circle cx="28" cy="2" r="1" fill="srgba(98.7747%,98.7747%,98.7747%,1)"/>
  <circle cx="29" cy="2" r="1" fill="srgba(97.9767%,97.9767%,97.9767%,1)"/>
  <circle cx="30" cy="2" r="1" fill="srgba(99.855%,99.855%,99.855%,1)"/>
  <circle cx="31" cy="2" r="1" fill="white"/>
  <circle cx="32" cy="2" r="1" fill="srgba(99.8611%,99.8611%,99.8611%,1)"/>
  <circle cx="33" cy="2" r="1" fill="srgba(97.9187%,97.9187%,97.9187%,1)"/>
  <circle cx="34" cy="2" r="1" fill="srgba(98.7839%,98.7839%,98.7839%,1)"/>
  <circle cx="35" cy="2" r="1" fill="srgba(99.2233%,99.2233%,99.2233%,1)"/>
  <circle cx="36" cy="2" r="1" fill="srgba(97.8759%,97.8759%,97.8759%,1)"/>
  <circle cx="37" cy="2" r="1" fill="srgba(97.5143%,97.5143%,97.5143%,1)"/>
  <circle cx="38" cy="2" r="1" fill="srgba(97.3159%,97.3159%,97.3159%,1)"/>
  <circle cx="39" cy="2" r="1" fill="srgba(97.409%,97.409%,97.409%,1)"/>
  <circle cx="40" cy="2" r="1" fill="srgba(98.2177%,98.2177%,98.2177%,1)"/>
  <circle cx="41" cy="2" r="1" fill="srgba(97.9812%,97.9812%,97.9812%,1)"/>
  <circle cx="42" cy="2" r="1" fill="srgba(99.4446%,99.4446%,99.4446%,1)"/>
  <circle cx="43" cy="2" r="1" fill="white"/>
  <circle cx="44" cy="2" r="1" fill="white"/>
  <circle cx="45" cy="2" r="1" fill="srgba(99.707%,99.707%,99.707%,1)"/>
  <circle cx="46" cy="2" r="1" fill="srgba(98.0346%,98.0346%,98.0346%,1)"/>
  <circle cx="47" cy="2" r="1" fill="srgba(99.5209%,99.5209%,99.5209%,1)"/>
  <circle cx="48" cy="2" r="1" fill="white"/>
  <circle cx="49" cy="2" r="1" fill="white"/>
  <circle cx="0" cy="3" r="1" fill="white"/>
  <circle cx="1" cy="3" r="1" fill="white"/>
  <circle cx="2" cy="3" r="1" fill="srgba(89.1005%,89.1005%,89.1005%,1)"/>
  <circle cx="3" cy="3" r="1" fill="srgba(89.247%,89.247%,89.247%,1)"/>
  <circle cx="4" cy="3" r="1" fill="srgba(92.2362%,92.2362%,92.2362%,1)"/>
  <circle cx="5" cy="3" r="1" fill="white"/>
  <circle cx="6" cy="3" r="1" fill="white"/>
  <circle cx="7" cy="3" r="1" fill="white"/>
  <circle cx="8" cy="3" r="1" fill="white"/>
  <circle cx="9" cy="3" r="1" fill="white"/>
  <circle cx="10" cy="3" r="1" fill="srgba(94.1939%,94.1939%,94.1939%,1)"/>
  <circle cx="11" cy="3" r="1" fill="srgba(81.6251%,81.6251%,81.6251%,1)"/>
  <circle cx="12" cy="3" r="1" fill="srgba(79.9649%,79.9649%,79.9649%,1)"/>
  <circle cx="13" cy="3" r="1" fill="srgba(78.4451%,78.4451%,78.4451%,1)"/>
  <circle cx="14" cy="3" r="1" fill="srgba(70.1854%,70.1854%,70.1854%,1)"/>
  <circle cx="15" cy="3" r="1" fill="srgba(65.6474%,65.6474%,65.6474%,1)"/>
  <circle cx="16" cy="3" r="1" fill="srgba(69.7932%,69.7932%,69.7932%,1)"/>
  <circle cx="17" cy="3" r="1" fill="srgba(76.0372%,76.0372%,76.0372%,1)"/>
  <circle cx="18" cy="3" r="1" fill="srgba(71.8151%,71.8151%,71.8151%,1)"/>
  <circle cx="19" cy="3" r="1" fill="srgba(82.5879%,82.5879%,82.5879%,1)"/>
  <circle cx="20" cy="3" r="1" fill="srgba(87.1138%,87.1138%,87.1138%,1)"/>
  <circle cx="21" cy="3" r="1" fill="srgba(87.5196%,87.5196%,87.5196%,1)"/>
  <circle cx="22" cy="3" r="1" fill="srgba(88.2261%,88.2261%,88.2261%,1)"/>
  <circle cx="23" cy="3" r="1" fill="srgba(85.7328%,85.7328%,85.7328%,1)"/>
  <circle cx="24" cy="3" r="1" fill="srgba(83.1815%,83.1815%,83.1815%,1)"/>
  <circle cx="25" cy="3" r="1" fill="srgba(91.3573%,91.3573%,91.3573%,1)"/>
  <circle cx="26" cy="3" r="1" fill="white"/>
  <circle cx="27" cy="3" r="1" fill="srgba(99.0661%,99.0661%,99.0661%,1)"/>
  <circle cx="28" cy="3" r="1" fill="srgba(88.6763%,88.6763%,88.6763%,1)"/>
  <circle cx="29" cy="3" r="1" fill="srgba(87.0832%,87.0832%,87.0832%,1)"/>
  <circle cx="30" cy="3" r="1" fill="srgba(95.5489%,95.5489%,95.5489%,1)"/>
  <circle cx="31" cy="3" r="1" fill="white"/>
  <circle cx="32" cy="3" r="1" fill="srgba(95.7992%,95.7992%,95.7992%,1)"/>
  <circle cx="33" cy="3" r="1" fill="srgba(84.8402%,84.8402%,84.8402%,1)"/>
  <circle cx="34" cy="3" r="1" fill="srgba(83.6271%,83.6271%,83.6271%,1)"/>
  <circle cx="35" cy="3" r="1" fill="srgba(87.7333%,87.7333%,87.7333%,1)"/>
  <circle cx="36" cy="3" r="1" fill="srgba(88.4596%,88.4596%,88.4596%,1)"/>
  <circle cx="37" cy="3" r="1" fill="srgba(87.7714%,87.7714%,87.7714%,1)"/>
  <circle cx="38" cy="3" r="1" fill="srgba(87.2038%,87.2038%,87.2038%,1)"/>
  <circle cx="39" cy="3" r="1" fill="srgba(88.5435%,88.5435%,88.5435%,1)"/>
  <circle cx="40" cy="3" r="1" fill="srgba(82.3087%,82.3087%,82.3087%,1)"/>
  <circle cx="41" cy="3" r="1" fill="srgba(83.035%,83.035%,83.035%,1)"/>
  <circle cx="42" cy="3" r="1" fill="srgba(92.3293%,92.3293%,92.3293%,1)"/>
  <circle cx="43" cy="3" r="1" fill="white"/>
  <circle cx="44" cy="3" r="1" fill="white"/>
  <circle cx="45" cy="3" r="1" fill="srgba(94.0002%,94.0002%,94.0002%,1)"/>
  <circle cx="46" cy="3" r="1" fill="srgba(84.033%,84.033%,84.033%,1)"/>
  <circle cx="47" cy="3" r="1" fill="srgba(92.9046%,92.9046%,92.9046%,1)"/>
  <circle cx="48" cy="3" r="1" fill="white"/>
  <circle cx="49" cy="3" r="1" fill="white"/>
  <circle cx="0" cy="4" r="1" fill="white"/>
  <circle cx="1" cy="4" r="1" fill="white"/>
  <circle cx="2" cy="4" r="1" fill="srgba(88.0903%,88.0903%,88.0903%,1)"/>
  <circle cx="3" cy="4" r="1" fill="srgba(88.9174%,88.9174%,88.9174%,1)"/>
  <circle cx="4" cy="4" r="1" fill="srgba(93.0709%,93.0709%,93.0709%,1)"/>
  <circle cx="5" cy="4" r="1" fill="white"/>
  <circle cx="6" cy="4" r="1" fill="white"/>
  <circle cx="7" cy="4" r="1" fill="white"/>
  <circle cx="8" cy="4" r="1" fill="white"/>
  <circle cx="9" cy="4" r="1" fill="white"/>
  <circle cx="10" cy="4" r="1" fill="srgba(92.137%,92.137%,92.137%,1)"/>
  <circle cx="11" cy="4" r="1" fill="srgba(90.1518%,90.1518%,90.1518%,1)"/>
  <circle cx="12" cy="4" r="1" fill="srgba(88.3024%,88.3024%,88.3024%,1)"/>
  <circle cx="13" cy="4" r="1" fill="srgba(88.0156%,88.0156%,88.0156%,1)"/>
  <circle cx="14" cy="4" r="1" fill="srgba(86.0685%,86.0685%,86.0685%,1)"/>
  <circle cx="15" cy="4" r="1" fill="srgba(84.0589%,84.0589%,84.0589%,1)"/>
  <circle cx="16" cy="4" r="1" fill="srgba(90.9575%,90.9575%,90.9575%,1)"/>
  <circle cx="17" cy="4" r="1" fill="srgba(78.5031%,78.5031%,78.5031%,1)"/>
  <circle cx="18" cy="4" r="1" fill="srgba(91.7235%,91.7235%,91.7235%,1)"/>
  <circle cx="19" cy="4" r="1" fill="srgba(87.5532%,87.5532%,87.5532%,1)"/>
  <circle cx="20" cy="4" r="1" fill="srgba(87.5532%,87.5532%,87.5532%,1)"/>
  <circle cx="21" cy="4" r="1" fill="srgba(87.657%,87.657%,87.657%,1)"/>
  <circle cx="22" cy="4" r="1" fill="srgba(90.042%,90.042%,90.042%,1)"/>
  <circle cx="23" cy="4" r="1" fill="srgba(84.4053%,84.4053%,84.4053%,1)"/>
  <circle cx="24" cy="4" r="1" fill="srgba(85.0614%,85.0614%,85.0614%,1)"/>
  <circle cx="25" cy="4" r="1" fill="srgba(88.5389%,88.5389%,88.5389%,1)"/>
  <circle cx="26" cy="4" r="1" fill="srgba(98.2727%,98.2727%,98.2727%,1)"/>
  <circle cx="27" cy="4" r="1" fill="srgba(94.1863%,94.1863%,94.1863%,1)"/>
  <circle cx="28" cy="4" r="1" fill="srgba(90.103%,90.103%,90.103%,1)"/>
  <circle cx="29" cy="4" r="1" fill="srgba(94.4594%,94.4594%,94.4594%,1)"/>
  <circle cx="30" cy="4" r="1" fill="srgba(89.2164%,89.2164%,89.2164%,1)"/>
  <circle cx="31" cy="4" r="1" fill="white"/>
  <circle cx="32" cy="4" r="1" fill="srgba(89.9245%,89.9245%,89.9245%,1)"/>
  <circle cx="33" cy="4" r="1" fill="srgba(89.4194%,89.4194%,89.4194%,1)"/>
  <circle cx="34" cy="4" r="1" fill="srgba(80.1266%,80.1266%,80.1266%,1)"/>
  <circle cx="35" cy="4" r="1" fill="srgba(91.2947%,91.2947%,91.2947%,1)"/>
  <circle cx="36" cy="4" r="1" fill="srgba(87.4617%,87.4617%,87.4617%,1)"/>
  <circle cx="37" cy="4" r="1" fill="srgba(88.3864%,88.3864%,88.3864%,1)"/>
  <circle cx="38" cy="4" r="1" fill="srgba(87.776%,87.776%,87.776%,1)"/>
  <circle cx="39" cy="4" r="1" fill="srgba(88.2261%,88.2261%,88.2261%,1)"/>
  <circle cx="40" cy="4" r="1" fill="srgba(82.3484%,82.3484%,82.3484%,1)"/>
  <circle cx="41" cy="4" r="1" fill="srgba(85.4887%,85.4887%,85.4887%,1)"/>
  <circle cx="42" cy="4" r="1" fill="srgba(90.631%,90.631%,90.631%,1)"/>
  <circle cx="43" cy="4" r="1" fill="white"/>
  <circle cx="44" cy="4" r="1" fill="white"/>
  <circle cx="45" cy="4" r="1" fill="srgba(91.5236%,91.5236%,91.5236%,1)"/>
  <circle cx="46" cy="4" r="1" fill="srgba(87.3823%,87.3823%,87.3823%,1)"/>
  <circle cx="47" cy="4" r="1" fill="srgba(91.1666%,91.1666%,91.1666%,1)"/>
  <circle cx="48" cy="4" r="1" fill="white"/>
  <circle cx="49" cy="4" r="1" fill="white"/>
  <circle cx="0" cy="5" r="1" fill="white"/>
  <circle cx="1" cy="5" r="1" fill="white"/>
  <circle cx="2" cy="5" r="1" fill="srgba(87.8584%,87.8584%,87.8584%,1)"/>
  <circle cx="3" cy="5" r="1" fill="srgba(88.8594%,88.8594%,88.8594%,1)"/>
  <circle cx="4" cy="5" r="1" fill="srgba(93.1411%,93.1411%,93.1411%,1)"/>
  <circle cx="5" cy="5" r="1" fill="white"/>
  <circle cx="6" cy="5" r="1" fill="white"/>
  <circle cx="7" cy="5" r="1" fill="white"/>
  <circle cx="8" cy="5" r="1" fill="white"/>
  <circle cx="9" cy="5" r="1" fill="white"/>
  <circle cx="10" cy="5" r="1" fill="srgba(90.7195%,90.7195%,90.7195%,1)"/>
  <circle cx="11" cy="5" r="1" fill="srgba(88.5588%,88.5588%,88.5588%,1)"/>
  <circle cx="12" cy="5" r="1" fill="srgba(90.7713%,90.7713%,90.7713%,1)"/>
  <circle cx="13" cy="5" r="1" fill="srgba(99.826%,99.826%,99.826%,1)"/>
  <circle cx="14" cy="5" r="1" fill="srgba(99.7223%,99.7223%,99.7223%,1)"/>
  <circle cx="15" cy="5" r="1" fill="srgba(93.9406%,93.9406%,93.9406%,1)"/>
  <circle cx="16" cy="5" r="1" fill="srgba(88.5481%,88.5481%,88.5481%,1)"/>
  <circle cx="17" cy="5" r="1" fill="srgba(77.142%,77.142%,77.142%,1)"/>
  <circle cx="18" cy="5" r="1" fill="srgba(87.4754%,87.4754%,87.4754%,1)"/>
  <circle cx="19" cy="5" r="1" fill="srgba(94.818%,94.818%,94.818%,1)"/>
  <circle cx="20" cy="5" r="1" fill="srgba(99.6048%,99.6048%,99.6048%,1)"/>
  <circle cx="21" cy="5" r="1" fill="srgba(98.883%,98.883%,98.883%,1)"/>
  <circle cx="22" cy="5" r="1" fill="srgba(87.7668%,87.7668%,87.7668%,1)"/>
  <circle cx="23" cy="5" r="1" fill="srgba(87.5013%,87.5013%,87.5013%,1)"/>
  <circle cx="24" cy="5" r="1" fill="srgba(83.7919%,83.7919%,83.7919%,1)"/>
  <circle cx="25" cy="5" r="1" fill="srgba(89.2302%,89.2302%,89.2302%,1)"/>
  <circle cx="26" cy="5" r="1" fill="srgba(92.6116%,92.6116%,92.6116%,1)"/>
  <circle cx="27" cy="5" r="1" fill="srgba(89.2378%,89.2378%,89.2378%,1)"/>
  <circle cx="28" cy="5" r="1" fill="srgba(87.3671%,87.3671%,87.3671%,1)"/>
  <circle cx="29" cy="5" r="1" fill="srgba(83.508%,83.508%,83.508%,1)"/>
  <circle cx="30" cy="5" r="1" fill="srgba(88.072%,88.072%,88.072%,1)"/>
  <circle cx="31" cy="5" r="1" fill="srgba(95.0439%,95.0439%,95.0439%,1)"/>
  <circle cx="32" cy="5" r="1" fill="srgba(88.0125%,88.0125%,88.0125%,1)"/>
  <circle cx="33" cy="5" r="1" fill="srgba(87.5776%,87.5776%,87.5776%,1)"/>
  <circle cx="34" cy="5" r="1" fill="srgba(84.3336%,84.3336%,84.3336%,1)"/>
  <circle cx="35" cy="5" r="1" fill="srgba(88.3604%,88.3604%,88.3604%,1)"/>
  <circle cx="36" cy="5" r="1" fill="srgba(95.0881%,95.0881%,95.0881%,1)"/>
  <circle cx="37" cy="5" r="1" fill="srgba(99.5682%,99.5682%,99.5682%,1)"/>
  <circle cx="38" cy="5" r="1" fill="srgba(98.7854%,98.7854%,98.7854%,1)"/>
  <circle cx="39" cy="5" r="1" fill="srgba(88.4062%,88.4062%,88.4062%,1)"/>
  <circle cx="40" cy="5" r="1" fill="srgba(81.0254%,81.0254%,81.0254%,1)"/>
  <circle cx="41" cy="5" r="1" fill="srgba(84.8386%,84.8386%,84.8386%,1)"/>
  <circle cx="42" cy="5" r="1" fill="srgba(90.4173%,90.4173%,90.4173%,1)"/>
  <circle cx="43" cy="5" r="1" fill="white"/>
  <circle cx="44" cy="5" r="1" fill="white"/>
  <circle cx="45" cy="5" r="1" fill="srgba(91.0292%,91.0292%,91.0292%,1)"/>
  <circle cx="46" cy="5" r="1" fill="srgba(86.9535%,86.9535%,86.9535%,1)"/>
  <circle cx="47" cy="5" r="1" fill="srgba(90.8446%,90.8446%,90.8446%,1)"/>
  <circle cx="48" cy="5" r="1" fill="white"/>
  <circle cx="49" cy="5" r="1" fill="white"/>
  <circle cx="0" cy="6" r="1" fill="white"/>
  <circle cx="1" cy="6" r="1" fill="white"/>
  <circle cx="2" cy="6" r="1" fill="srgba(88.2795%,88.2795%,88.2795%,1)"/>
  <circle cx="3" cy="6" r="1" fill="srgba(88.9372%,88.9372%,88.9372%,1)"/>
  <circle cx="4" cy="6" r="1" fill="srgba(93.0251%,93.0251%,93.0251%,1)"/>
  <circle cx="5" cy="6" r="1" fill="white"/>
  <circle cx="6" cy="6" r="1" fill="white"/>
  <circle cx="7" cy="6" r="1" fill="white"/>
  <circle cx="8" cy="6" r="1" fill="white"/>
  <circle cx="9" cy="6" r="1" fill="white"/>
  <circle cx="10" cy="6" r="1" fill="srgba(90.7759%,90.7759%,90.7759%,1)"/>
  <circle cx="11" cy="6" r="1" fill="srgba(88.2933%,88.2933%,88.2933%,1)"/>
  <circle cx="12" cy="6" r="1" fill="srgba(91.899%,91.899%,91.899%,1)"/>
  <circle cx="13" cy="6" r="1" fill="white"/>
  <circle cx="14" cy="6" r="1" fill="white"/>
  <circle cx="15" cy="6" r="1" fill="srgba(95.1019%,95.1019%,95.1019%,1)"/>
  <circle cx="16" cy="6" r="1" fill="srgba(88.7526%,88.7526%,88.7526%,1)"/>
  <circle cx="17" cy="6" r="1" fill="srgba(78.233%,78.233%,78.233%,1)"/>
  <circle cx="18" cy="6" r="1" fill="srgba(87.5837%,87.5837%,87.5837%,1)"/>
  <circle cx="19" cy="6" r="1" fill="srgba(96.0555%,96.0555%,96.0555%,1)"/>
  <circle cx="20" cy="6" r="1" fill="white"/>
  <circle cx="21" cy="6" r="1" fill="srgba(99.7971%,99.7971%,99.7971%,1)"/>
  <circle cx="22" cy="6" r="1" fill="srgba(88.6824%,88.6824%,88.6824%,1)"/>
  <circle cx="23" cy="6" r="1" fill="srgba(88.1498%,88.1498%,88.1498%,1)"/>
  <circle cx="24" cy="6" r="1" fill="srgba(88.3192%,88.3192%,88.3192%,1)"/>
  <circle cx="25" cy="6" r="1" fill="srgba(89.2851%,89.2851%,89.2851%,1)"/>
  <circle cx="26" cy="6" r="1" fill="srgba(85.1347%,85.1347%,85.1347%,1)"/>
  <circle cx="27" cy="6" r="1" fill="srgba(86.8986%,86.8986%,86.8986%,1)"/>
  <circle cx="28" cy="6" r="1" fill="srgba(87.5349%,87.5349%,87.5349%,1)"/>
  <circle cx="29" cy="6" r="1" fill="srgba(86.5873%,86.5873%,86.5873%,1)"/>
  <circle cx="30" cy="6" r="1" fill="srgba(89.1539%,89.1539%,89.1539%,1)"/>
  <circle cx="31" cy="6" r="1" fill="srgba(84.3336%,84.3336%,84.3336%,1)"/>
  <circle cx="32" cy="6" r="1" fill="srgba(89.5003%,89.5003%,89.5003%,1)"/>
  <circle cx="33" cy="6" r="1" fill="srgba(88.2933%,88.2933%,88.2933%,1)"/>
  <circle cx="34" cy="6" r="1" fill="srgba(87.5242%,87.5242%,87.5242%,1)"/>
  <circle cx="35" cy="6" r="1" fill="srgba(88.2139%,88.2139%,88.2139%,1)"/>
  <circle cx="36" cy="6" r="1" fill="srgba(96.2631%,96.2631%,96.2631%,1)"/>
  <circle cx="37" cy="6" r="1" fill="white"/>
  <circle cx="38" cy="6" r="1" fill="srgba(99.4461%,99.4461%,99.4461%,1)"/>
  <circle cx="39" cy="6" r="1" fill="srgba(88.7663%,88.7663%,88.7663%,1)"/>
  <circle cx="40" cy="6" r="1" fill="srgba(80.8423%,80.8423%,80.8423%,1)"/>
  <circle cx="41" cy="6" r="1" fill="srgba(84.6174%,84.6174%,84.6174%,1)"/>
  <circle cx="42" cy="6" r="1" fill="srgba(90.5196%,90.5196%,90.5196%,1)"/>
  <circle cx="43" cy="6" r="1" fill="white"/>
  <circle cx="44" cy="6" r="1" fill="white"/>
  <circle cx="45" cy="6" r="1" fill="srgba(90.7729%,90.7729%,90.7729%,1)"/>
  <circle cx="46" cy="6" r="1" fill="srgba(86.7994%,86.7994%,86.7994%,1)"/>
  <circle cx="47" cy="6" r="1" fill="srgba(90.8217%,90.8217%,90.8217%,1)"/>
  <circle cx="48" cy="6" r="1" fill="white"/>
  <circle cx="49" cy="6" r="1" fill="white"/>
  <circle cx="0" cy="7" r="1" fill="white"/>
  <circle cx="1" cy="7" r="1" fill="white"/>
  <circle cx="2" cy="7" r="1" fill="srgba(89.5506%,89.5506%,89.5506%,1)"/>
  <circle cx="3" cy="7" r="1" fill="srgba(89.8573%,89.8573%,89.8573%,1)"/>
  <circle cx="4" cy="7" r="1" fill="srgba(90.6416%,90.6416%,90.6416%,1)"/>
  <circle cx="5" cy="7" r="1" fill="srgba(98.3703%,98.3703%,98.3703%,1)"/>
  <circle cx="6" cy="7" r="1" fill="srgba(98.0819%,98.0819%,98.0819%,1)"/>
  <circle cx="7" cy="7" r="1" fill="srgba(98.1155%,98.1155%,98.1155%,1)"/>
  <circle cx="8" cy="7" r="1" fill="srgba(98.1445%,98.1445%,98.1445%,1)"/>
  <circle cx="9" cy="7" r="1" fill="srgba(98.6786%,98.6786%,98.6786%,1)"/>
  <circle cx="10" cy="7" r="1" fill="srgba(89.4408%,89.4408%,89.4408%,1)"/>
  <circle cx="11" cy="7" r="1" fill="srgba(88.8411%,88.8411%,88.8411%,1)"/>
  <circle cx="12" cy="7" r="1" fill="srgba(90.6218%,90.6218%,90.6218%,1)"/>
  <circle cx="13" cy="7" r="1" fill="srgba(98.7228%,98.7228%,98.7228%,1)"/>
  <circle cx="14" cy="7" r="1" fill="srgba(98.7015%,98.7015%,98.7015%,1)"/>
  <circle cx="15" cy="7" r="1" fill="srgba(92.7367%,92.7367%,92.7367%,1)"/>
  <circle cx="16" cy="7" r="1" fill="srgba(88.3925%,88.3925%,88.3925%,1)"/>
  <circle cx="17" cy="7" r="1" fill="srgba(78.0209%,78.0209%,78.0209%,1)"/>
  <circle cx="18" cy="7" r="1" fill="srgba(87.7577%,87.7577%,87.7577%,1)"/>
  <circle cx="19" cy="7" r="1" fill="srgba(96.1944%,96.1944%,96.1944%,1)"/>
  <circle cx="20" cy="7" r="1" fill="white"/>
  <circle cx="21" cy="7" r="1" fill="srgba(99.8077%,99.8077%,99.8077%,1)"/>
  <circle cx="22" cy="7" r="1" fill="srgba(88.6717%,88.6717%,88.6717%,1)"/>
  <circle cx="23" cy="7" r="1" fill="srgba(88.2521%,88.2521%,88.2521%,1)"/>
  <circle cx="24" cy="7" r="1" fill="srgba(93.5348%,93.5348%,93.5348%,1)"/>
  <circle cx="25" cy="7" r="1" fill="srgba(88.5145%,88.5145%,88.5145%,1)"/>
  <circle cx="26" cy="7" r="1" fill="srgba(85.7404%,85.7404%,85.7404%,1)"/>
  <circle cx="27" cy="7" r="1" fill="srgba(87.4968%,87.4968%,87.4968%,1)"/>
  <circle cx="28" cy="7" r="1" fill="srgba(89.8192%,89.8192%,89.8192%,1)"/>
  <circle cx="29" cy="7" r="1" fill="srgba(94.3938%,94.3938%,94.3938%,1)"/>
  <circle cx="30" cy="7" r="1" fill="srgba(88.307%,88.307%,88.307%,1)"/>
  <circle cx="31" cy="7" r="1" fill="srgba(84.0085%,84.0085%,84.0085%,1)"/>
  <circle cx="32" cy="7" r="1" fill="srgba(89.2119%,89.2119%,89.2119%,1)"/>
  <circle cx="33" cy="7" r="1" fill="srgba(93.1624%,93.1624%,93.1624%,1)"/>
  <circle cx="34" cy="7" r="1" fill="srgba(89.041%,89.041%,89.041%,1)"/>
  <circle cx="35" cy="7" r="1" fill="srgba(88.7205%,88.7205%,88.7205%,1)"/>
  <circle cx="36" cy="7" r="1" fill="srgba(93.9544%,93.9544%,93.9544%,1)"/>
  <circle cx="37" cy="7" r="1" fill="srgba(98.6648%,98.6648%,98.6648%,1)"/>
  <circle cx="38" cy="7" r="1" fill="srgba(97.9812%,97.9812%,97.9812%,1)"/>
  <circle cx="39" cy="7" r="1" fill="srgba(88.0446%,88.0446%,88.0446%,1)"/>
  <circle cx="40" cy="7" r="1" fill="srgba(81.3504%,81.3504%,81.3504%,1)"/>
  <circle cx="41" cy="7" r="1" fill="srgba(85.388%,85.388%,85.388%,1)"/>
  <circle cx="42" cy="7" r="1" fill="srgba(89.4469%,89.4469%,89.4469%,1)"/>
  <circle cx="43" cy="7" r="1" fill="srgba(98.5687%,98.5687%,98.5687%,1)"/>
  <circle cx="44" cy="7" r="1" fill="srgba(99.2142%,99.2142%,99.2142%,1)"/>
  <circle cx="45" cy="7" r="1" fill="srgba(89.6223%,89.6223%,89.6223%,1)"/>
  <circle cx="46" cy="7" r="1" fill="srgba(86.6804%,86.6804%,86.6804%,1)"/>
  <circle cx="47" cy="7" r="1" fill="srgba(90.8446%,90.8446%,90.8446%,1)"/>
  <circle cx="48" cy="7" r="1" fill="white"/>
  <circle cx="49" cy="7" r="1" fill="white"/>
  <circle cx="0" cy="8" r="1" fill="white"/>
  <circle cx="1" cy="8" r="1" fill="white"/>
  <circle cx="2" cy="8" r="1" fill="srgba(92.4514%,92.4514%,92.4514%,1)"/>
  <circle cx="3" cy="8" r="1" fill="srgba(89.8283%,89.8283%,89.8283%,1)"/>
  <circle cx="4" cy="8" r="1" fill="srgba(89.0227%,89.0227%,89.0227%,1)"/>
  <circle cx="5" cy="8" r="1" fill="srgba(87.6585%,87.6585%,87.6585%,1)"/>
  <circle cx="6" cy="8" r="1" fill="srgba(87.599%,87.599%,87.599%,1)"/>
  <circle cx="7" cy="8" r="1" fill="srgba(87.6417%,87.6417%,87.6417%,1)"/>
  <circle cx="8" cy="8" r="1" fill="srgba(87.7638%,87.7638%,87.7638%,1)"/>
  <circle cx="9" cy="8" r="1" fill="srgba(88.2078%,88.2078%,88.2078%,1)"/>
  <circle cx="10" cy="8" r="1" fill="srgba(80.0092%,80.0092%,80.0092%,1)"/>
  <circle cx="11" cy="8" r="1" fill="srgba(88.603%,88.603%,88.603%,1)"/>
  <circle cx="12" cy="8" r="1" fill="srgba(88.51%,88.51%,88.51%,1)"/>
  <circle cx="13" cy="8" r="1" fill="srgba(87.3732%,87.3732%,87.3732%,1)"/>
  <circle cx="14" cy="8" r="1" fill="srgba(87.5105%,87.5105%,87.5105%,1)"/>
  <circle cx="15" cy="8" r="1" fill="srgba(88.2643%,88.2643%,88.2643%,1)"/>
  <circle cx="16" cy="8" r="1" fill="srgba(89.5323%,89.5323%,89.5323%,1)"/>
  <circle cx="17" cy="8" r="1" fill="srgba(78.1994%,78.1994%,78.1994%,1)"/>
  <circle cx="18" cy="8" r="1" fill="srgba(88.3177%,88.3177%,88.3177%,1)"/>
  <circle cx="19" cy="8" r="1" fill="srgba(96.4736%,96.4736%,96.4736%,1)"/>
  <circle cx="20" cy="8" r="1" fill="white"/>
  <circle cx="21" cy="8" r="1" fill="srgba(99.8398%,99.8398%,99.8398%,1)"/>
  <circle cx="22" cy="8" r="1" fill="srgba(88.893%,88.893%,88.893%,1)"/>
  <circle cx="23" cy="8" r="1" fill="srgba(88.6259%,88.6259%,88.6259%,1)"/>
  <circle cx="24" cy="8" r="1" fill="srgba(95.8953%,95.8953%,95.8953%,1)"/>
  <circle cx="25" cy="8" r="1" fill="srgba(90.6279%,90.6279%,90.6279%,1)"/>
  <circle cx="26" cy="8" r="1" fill="srgba(94.4244%,94.4244%,94.4244%,1)"/>
  <circle cx="27" cy="8" r="1" fill="srgba(89.8878%,89.8878%,89.8878%,1)"/>
  <circle cx="28" cy="8" r="1" fill="srgba(94.8058%,94.8058%,94.8058%,1)"/>
  <circle cx="29" cy="8" r="1" fill="srgba(99.237%,99.237%,99.237%,1)"/>
  <circle cx="30" cy="8" r="1" fill="srgba(87.7867%,87.7867%,87.7867%,1)"/>
  <circle cx="31" cy="8" r="1" fill="srgba(96.585%,96.585%,96.585%,1)"/>
  <circle cx="32" cy="8" r="1" fill="srgba(88.2536%,88.2536%,88.2536%,1)"/>
  <circle cx="33" cy="8" r="1" fill="srgba(98.6069%,98.6069%,98.6069%,1)"/>
  <circle cx="34" cy="8" r="1" fill="srgba(89.4804%,89.4804%,89.4804%,1)"/>
  <circle cx="35" cy="8" r="1" fill="srgba(90.7012%,90.7012%,90.7012%,1)"/>
  <circle cx="36" cy="8" r="1" fill="srgba(86.4637%,86.4637%,86.4637%,1)"/>
  <circle cx="37" cy="8" r="1" fill="srgba(87.0695%,87.0695%,87.0695%,1)"/>
  <circle cx="38" cy="8" r="1" fill="srgba(86.8635%,86.8635%,86.8635%,1)"/>
  <circle cx="39" cy="8" r="1" fill="srgba(88.2567%,88.2567%,88.2567%,1)"/>
  <circle cx="40" cy="8" r="1" fill="srgba(84.7807%,84.7807%,84.7807%,1)"/>
  <circle cx="41" cy="8" r="1" fill="srgba(84.77%,84.77%,84.77%,1)"/>
  <circle cx="42" cy="8" r="1" fill="srgba(88.5466%,88.5466%,88.5466%,1)"/>
  <circle cx="43" cy="8" r="1" fill="srgba(87.3869%,87.3869%,87.3869%,1)"/>
  <circle cx="44" cy="8" r="1" fill="srgba(89.0181%,89.0181%,89.0181%,1)"/>
  <circle cx="45" cy="8" r="1" fill="srgba(88.0079%,88.0079%,88.0079%,1)"/>
  <circle cx="46" cy="8" r="1" fill="srgba(91.0277%,91.0277%,91.0277%,1)"/>
  <circle cx="47" cy="8" r="1" fill="srgba(90.6126%,90.6126%,90.6126%,1)"/>
  <circle cx="48" cy="8" r="1" fill="white"/>
  <circle cx="49" cy="8" r="1" fill="white"/>
  <circle cx="0" cy="9" r="1" fill="white"/>
  <circle cx="1" cy="9" r="1" fill="white"/>
  <circle cx="2" cy="9" r="1" fill="srgba(99.0707%,99.0707%,99.0707%,1)"/>
  <circle cx="3" cy="9" r="1" fill="srgba(90.1717%,90.1717%,90.1717%,1)"/>
  <circle cx="4" cy="9" r="1" fill="srgba(87.776%,87.776%,87.776%,1)"/>
  <circle cx="5" cy="9" r="1" fill="srgba(88.0003%,88.0003%,88.0003%,1)"/>
  <circle cx="6" cy="9" r="1" fill="srgba(87.6738%,87.6738%,87.6738%,1)"/>
  <circle cx="7" cy="9" r="1" fill="srgba(87.6478%,87.6478%,87.6478%,1)"/>
  <circle cx="8" cy="9" r="1" fill="srgba(87.6448%,87.6448%,87.6448%,1)"/>
  <circle cx="9" cy="9" r="1" fill="srgba(87.8096%,87.8096%,87.8096%,1)"/>
  <circle cx="10" cy="9" r="1" fill="srgba(87.5181%,87.5181%,87.5181%,1)"/>
  <circle cx="11" cy="9" r="1" fill="srgba(89.752%,89.752%,89.752%,1)"/>
  <circle cx="12" cy="9" r="1" fill="srgba(87.7272%,87.7272%,87.7272%,1)"/>
  <circle cx="13" cy="9" r="1" fill="srgba(87.657%,87.657%,87.657%,1)"/>
  <circle cx="14" cy="9" r="1" fill="srgba(87.4434%,87.4434%,87.4434%,1)"/>
  <circle cx="15" cy="9" r="1" fill="srgba(87.5685%,87.5685%,87.5685%,1)"/>
  <circle cx="16" cy="9" r="1" fill="srgba(89.4774%,89.4774%,89.4774%,1)"/>
  <circle cx="17" cy="9" r="1" fill="srgba(88.0186%,88.0186%,88.0186%,1)"/>
  <circle cx="18" cy="9" r="1" fill="srgba(86.5782%,86.5782%,86.5782%,1)"/>
  <circle cx="19" cy="9" r="1" fill="srgba(98.2757%,98.2757%,98.2757%,1)"/>
  <circle cx="20" cy="9" r="1" fill="white"/>
  <circle cx="21" cy="9" r="1" fill="white"/>
  <circle cx="22" cy="9" r="1" fill="srgba(90.3685%,90.3685%,90.3685%,1)"/>
  <circle cx="23" cy="9" r="1" fill="srgba(86.1662%,86.1662%,86.1662%,1)"/>
  <circle cx="24" cy="9" r="1" fill="srgba(97.911%,97.911%,97.911%,1)"/>
  <circle cx="25" cy="9" r="1" fill="srgba(96.8566%,96.8566%,96.8566%,1)"/>
  <circle cx="26" cy="9" r="1" fill="srgba(86.8727%,86.8727%,86.8727%,1)"/>
  <circle cx="27" cy="9" r="1" fill="srgba(88.9235%,88.9235%,88.9235%,1)"/>
  <circle cx="28" cy="9" r="1" fill="srgba(99.3576%,99.3576%,99.3576%,1)"/>
  <circle cx="29" cy="9" r="1" fill="white"/>
  <circle cx="30" cy="9" r="1" fill="srgba(92.9152%,92.9152%,92.9152%,1)"/>
  <circle cx="31" cy="9" r="1" fill="srgba(85.6382%,85.6382%,85.6382%,1)"/>
  <circle cx="32" cy="9" r="1" fill="srgba(92.0729%,92.0729%,92.0729%,1)"/>
  <circle cx="33" cy="9" r="1" fill="white"/>
  <circle cx="34" cy="9" r="1" fill="srgba(97.3098%,97.3098%,97.3098%,1)"/>
  <circle cx="35" cy="9" r="1" fill="srgba(89.0028%,89.0028%,89.0028%,1)"/>
  <circle cx="36" cy="9" r="1" fill="srgba(88.2856%,88.2856%,88.2856%,1)"/>
  <circle cx="37" cy="9" r="1" fill="srgba(87.512%,87.512%,87.512%,1)"/>
  <circle cx="38" cy="9" r="1" fill="srgba(87.4556%,87.4556%,87.4556%,1)"/>
  <circle cx="39" cy="9" r="1" fill="srgba(88.0064%,88.0064%,88.0064%,1)"/>
  <circle cx="40" cy="9" r="1" fill="srgba(87.7333%,87.7333%,87.7333%,1)"/>
  <circle cx="41" cy="9" r="1" fill="srgba(90.396%,90.396%,90.396%,1)"/>
  <circle cx="42" cy="9" r="1" fill="srgba(87.8508%,87.8508%,87.8508%,1)"/>
  <circle cx="43" cy="9" r="1" fill="srgba(86.9703%,86.9703%,86.9703%,1)"/>
  <circle cx="44" cy="9" r="1" fill="srgba(86.0517%,86.0517%,86.0517%,1)"/>
  <circle cx="45" cy="9" r="1" fill="srgba(84.5472%,84.5472%,84.5472%,1)"/>
  <circle cx="46" cy="9" r="1" fill="srgba(91.2261%,91.2261%,91.2261%,1)"/>
  <circle cx="47" cy="9" r="1" fill="srgba(90.5653%,90.5653%,90.5653%,1)"/>
  <circle cx="48" cy="9" r="1" fill="white"/>
  <circle cx="49" cy="9" r="1" fill="white"/>
  <circle cx="0" cy="10" r="1" fill="white"/>
  <circle cx="1" cy="10" r="1" fill="white"/>
  <circle cx="2" cy="10" r="1" fill="white"/>
  <circle cx="3" cy="10" r="1" fill="srgba(99.8978%,99.8978%,99.8978%,1)"/>
  <circle cx="4" cy="10" r="1" fill="srgba(99.2096%,99.2096%,99.2096%,1)"/>
  <circle cx="5" cy="10" r="1" fill="srgba(98.9364%,98.9364%,98.9364%,1)"/>
  <circle cx="6" cy="10" r="1" fill="srgba(98.8769%,98.8769%,98.8769%,1)"/>
  <circle cx="7" cy="10" r="1" fill="srgba(98.8754%,98.8754%,98.8754%,1)"/>
  <circle cx="8" cy="10" r="1" fill="srgba(98.8754%,98.8754%,98.8754%,1)"/>
  <circle cx="9" cy="10" r="1" fill="srgba(98.9227%,98.9227%,98.9227%,1)"/>
  <circle cx="10" cy="10" r="1" fill="srgba(99.5407%,99.5407%,99.5407%,1)"/>
  <circle cx="11" cy="10" r="1" fill="srgba(99.9176%,99.9176%,99.9176%,1)"/>
  <circle cx="12" cy="10" r="1" fill="srgba(99.1867%,99.1867%,99.1867%,1)"/>
  <circle cx="13" cy="10" r="1" fill="srgba(98.8861%,98.8861%,98.8861%,1)"/>
  <circle cx="14" cy="10" r="1" fill="srgba(98.8678%,98.8678%,98.8678%,1)"/>
  <circle cx="15" cy="10" r="1" fill="srgba(99.0555%,99.0555%,99.0555%,1)"/>
  <circle cx="16" cy="10" r="1" fill="srgba(99.8367%,99.8367%,99.8367%,1)"/>
  <circle cx="17" cy="10" r="1" fill="srgba(99.6017%,99.6017%,99.6017%,1)"/>
  <circle cx="18" cy="10" r="1" fill="srgba(99.3011%,99.3011%,99.3011%,1)"/>
  <circle cx="19" cy="10" r="1" fill="srgba(99.9954%,99.9954%,99.9954%,1)"/>
  <circle cx="20" cy="10" r="1" fill="white"/>
  <circle cx="21" cy="10" r="1" fill="white"/>
  <circle cx="22" cy="10" r="1" fill="srgba(99.6262%,99.6262%,99.6262%,1)"/>
  <circle cx="23" cy="10" r="1" fill="srgba(99.2432%,99.2432%,99.2432%,1)"/>
  <circle cx="24" cy="10" r="1" fill="srgba(99.9832%,99.9832%,99.9832%,1)"/>
  <circle cx="25" cy="10" r="1" fill="srgba(99.9649%,99.9649%,99.9649%,1)"/>
  <circle cx="26" cy="10" r="1" fill="srgba(99.1852%,99.1852%,99.1852%,1)"/>
  <circle cx="27" cy="10" r="1" fill="srgba(99.4995%,99.4995%,99.4995%,1)"/>
  <circle cx="28" cy="10" r="1" fill="white"/>
  <circle cx="29" cy="10" r="1" fill="white"/>
  <circle cx="30" cy="10" r="1" fill="srgba(99.8093%,99.8093%,99.8093%,1)"/>
  <circle cx="31" cy="10" r="1" fill="srgba(99.0265%,99.0265%,99.0265%,1)"/>
  <circle cx="32" cy="10" r="1" fill="srgba(99.7452%,99.7452%,99.7452%,1)"/>
  <circle cx="33" cy="10" r="1" fill="white"/>
  <circle cx="34" cy="10" r="1" fill="white"/>
  <circle cx="35" cy="10" r="1" fill="srgba(99.765%,99.765%,99.765%,1)"/>
  <circle cx="36" cy="10" r="1" fill="srgba(99.1501%,99.1501%,99.1501%,1)"/>
  <circle cx="37" cy="10" r="1" fill="srgba(98.999%,98.999%,98.999%,1)"/>
  <circle cx="38" cy="10" r="1" fill="srgba(98.9456%,98.9456%,98.9456%,1)"/>
  <circle cx="39" cy="10" r="1" fill="srgba(98.9181%,98.9181%,98.9181%,1)"/>
  <circle cx="40" cy="10" r="1" fill="srgba(99.3683%,99.3683%,99.3683%,1)"/>
  <circle cx="41" cy="10" r="1" fill="srgba(90.9728%,90.9728%,90.9728%,1)"/>
  <circle cx="42" cy="10" r="1" fill="srgba(87.0909%,87.0909%,87.0909%,1)"/>
  <circle cx="43" cy="10" r="1" fill="srgba(86.2608%,86.2608%,86.2608%,1)"/>
  <circle cx="44" cy="10" r="1" fill="srgba(86.0273%,86.0273%,86.0273%,1)"/>
  <circle cx="45" cy="10" r="1" fill="srgba(86.9444%,86.9444%,86.9444%,1)"/>
  <circle cx="46" cy="10" r="1" fill="srgba(89.8283%,89.8283%,89.8283%,1)"/>
  <circle cx="47" cy="10" r="1" fill="srgba(91.7235%,91.7235%,91.7235%,1)"/>
  <circle cx="48" cy="10" r="1" fill="white"/>
  <circle cx="49" cy="10" r="1" fill="white"/>
  <circle cx="0" cy="11" r="1" fill="white"/>
  <circle cx="1" cy="11" r="1" fill="white"/>
  <circle cx="2" cy="11" r="1" fill="white"/>
  <circle cx="3" cy="11" r="1" fill="white"/>
  <circle cx="4" cy="11" r="1" fill="white"/>
  <circle cx="5" cy="11" r="1" fill="white"/>
  <circle cx="6" cy="11" r="1" fill="white"/>
  <circle cx="7" cy="11" r="1" fill="white"/>
  <circle cx="8" cy="11" r="1" fill="white"/>
  <circle cx="9" cy="11" r="1" fill="white"/>
  <circle cx="10" cy="11" r="1" fill="white"/>
  <circle cx="11" cy="11" r="1" fill="white"/>
  <circle cx="12" cy="11" r="1" fill="white"/>
  <circle cx="13" cy="11" r="1" fill="white"/>
  <circle cx="14" cy="11" r="1" fill="white"/>
  <circle cx="15" cy="11" r="1" fill="white"/>
  <circle cx="16" cy="11" r="1" fill="white"/>
  <circle cx="17" cy="11" r="1" fill="white"/>
  <circle cx="18" cy="11" r="1" fill="white"/>
  <circle cx="19" cy="11" r="1" fill="white"/>
  <circle cx="20" cy="11" r="1" fill="white"/>
  <circle cx="21" cy="11" r="1" fill="white"/>
  <circle cx="22" cy="11" r="1" fill="white"/>
  <circle cx="23" cy="11" r="1" fill="white"/>
  <circle cx="24" cy="11" r="1" fill="white"/>
  <circle cx="25" cy="11" r="1" fill="white"/>
  <circle cx="26" cy="11" r="1" fill="white"/>
  <circle cx="27" cy="11" r="1" fill="white"/>
  <circle cx="28" cy="11" r="1" fill="white"/>
  <circle cx="29" cy="11" r="1" fill="white"/>
  <circle cx="30" cy="11" r="1" fill="white"/>
  <circle cx="31" cy="11" r="1" fill="white"/>
  <circle cx="32" cy="11" r="1" fill="white"/>
  <circle cx="33" cy="11" r="1" fill="white"/>
  <circle cx="34" cy="11" r="1" fill="white"/>
  <circle cx="35" cy="11" r="1" fill="white"/>
  <circle cx="36" cy="11" r="1" fill="white"/>
  <circle cx="37" cy="11" r="1" fill="white"/>
  <circle cx="38" cy="11" r="1" fill="white"/>
  <circle cx="39" cy="11" r="1" fill="white"/>
  <circle cx="40" cy="11" r="1" fill="srgba(99.8642%,99.8642%,99.8642%,1)"/>
  <circle cx="41" cy="11" r="1" fill="srgba(225,225,225,1)"/>
  <circle cx="42" cy="11" r="1" fill="srgba(87.9866%,87.9866%,87.9866%,1)"/>
  <circle cx="43" cy="11" r="1" fill="srgba(87.9347%,87.9347%,87.9347%,1)"/>
  <circle cx="44" cy="11" r="1" fill="srgba(87.6158%,87.6158%,87.6158%,1)"/>
  <circle cx="45" cy="11" r="1" fill="srgba(87.8111%,87.8111%,87.8111%,1)"/>
  <circle cx="46" cy="11" r="1" fill="srgba(89.5155%,89.5155%,89.5155%,1)"/>
  <circle cx="47" cy="11" r="1" fill="srgba(98.3917%,98.3917%,98.3917%,1)"/>
  <circle cx="48" cy="11" r="1" fill="white"/>
  <circle cx="49" cy="11" r="1" fill="white"/>
  <circle cx="0" cy="12" r="1" fill="white"/>
  <circle cx="1" cy="12" r="1" fill="white"/>
  <circle cx="2" cy="12" r="1" fill="white"/>
  <circle cx="3" cy="12" r="1" fill="white"/>
  <circle cx="4" cy="12" r="1" fill="white"/>
  <circle cx="5" cy="12" r="1" fill="white"/>
  <circle cx="6" cy="12" r="1" fill="white"/>
  <circle cx="7" cy="12" r="1" fill="white"/>
  <circle cx="8" cy="12" r="1" fill="white"/>
  <circle cx="9" cy="12" r="1" fill="white"/>
  <circle cx="10" cy="12" r="1" fill="white"/>
  <circle cx="11" cy="12" r="1" fill="white"/>
  <circle cx="12" cy="12" r="1" fill="white"/>
  <circle cx="13" cy="12" r="1" fill="white"/>
  <circle cx="14" cy="12" r="1" fill="white"/>
  <circle cx="15" cy="12" r="1" fill="white"/>
  <circle cx="16" cy="12" r="1" fill="white"/>
  <circle cx="17" cy="12" r="1" fill="white"/>
  <circle cx="18" cy="12" r="1" fill="white"/>
  <circle cx="19" cy="12" r="1" fill="white"/>
  <circle cx="20" cy="12" r="1" fill="white"/>
  <circle cx="21" cy="12" r="1" fill="white"/>
  <circle cx="22" cy="12" r="1" fill="white"/>
  <circle cx="23" cy="12" r="1" fill="white"/>
  <circle cx="24" cy="12" r="1" fill="white"/>
  <circle cx="25" cy="12" r="1" fill="white"/>
  <circle cx="26" cy="12" r="1" fill="white"/>
  <circle cx="27" cy="12" r="1" fill="white"/>
  <circle cx="28" cy="12" r="1" fill="white"/>
  <circle cx="29" cy="12" r="1" fill="white"/>
  <circle cx="30" cy="12" r="1" fill="white"/>
  <circle cx="31" cy="12" r="1" fill="white"/>
  <circle cx="32" cy="12" r="1" fill="white"/>
  <circle cx="33" cy="12" r="1" fill="white"/>
  <circle cx="34" cy="12" r="1" fill="white"/>
  <circle cx="35" cy="12" r="1" fill="white"/>
  <circle cx="36" cy="12" r="1" fill="white"/>
  <circle cx="37" cy="12" r="1" fill="white"/>
  <circle cx="38" cy="12" r="1" fill="white"/>
  <circle cx="39" cy="12" r="1" fill="white"/>
  <circle cx="40" cy="12" r="1" fill="white"/>
  <circle cx="41" cy="12" r="1" fill="srgba(98.8128%,98.8128%,98.8128%,1)"/>
  <circle cx="42" cy="12" r="1" fill="srgba(96.9619%,96.9619%,96.9619%,1)"/>
  <circle cx="43" cy="12" r="1" fill="srgba(96.6339%,96.6339%,96.6339%,1)"/>
  <circle cx="44" cy="12" r="1" fill="srgba(96.527%,96.527%,96.527%,1)"/>
  <circle cx="45" cy="12" r="1" fill="srgba(97.1237%,97.1237%,97.1237%,1)"/>
  <circle cx="46" cy="12" r="1" fill="srgba(99.4553%,99.4553%,99.4553%,1)"/>
  <circle cx="47" cy="12" r="1" fill="white"/>
  <circle cx="48" cy="12" r="1" fill="white"/>
  <circle cx="49" cy="12" r="1" fill="white"/>
</svg>
